# xmcd
#
# Track frame offsets:
#	150
#	15107
#	26099
#	36997
#	50514
#	58602
#	73837
#	90118
#	104472
#	120444
#	137774
#	150548
#	170184
#	184732
#	199221
#	210979
#	221018
#	234067
#	244583
#	256699
#	270220
#
# Disc length: 3786 seconds
#
# Revision: 0
# Processed by: cddbd v1.5.2PL0 Copyright (c) Steve Scherf et al.
# Submitted via: FairStars CD Ripper 1.80
#
DISCID=130ec815
DTITLE=Various Artist - Old Fashioned Love Songs CD 1/3
DYEAR=1990
DGENRE=Blues
TTITLE0=Frank Sinatra - Come Fly With Me
TTITLE1=Dean Martin - Ain't That A Kick In The Head
TTITLE2=Vic Damone - Let's Face The Music And Dance
TTITLE3=Louis Prima - Buona Sera
TTITLE4=Alam Cogan - Dreamboat
TTITLE5=Peggy Lee - Fever
TTITLE6=Johnny Mathis - Misty
TTITLE7=Nat King Cole - When I Fall In Love
TTITLE8=Gordon MacRae - My Funny Valentine
TTITLE9=June Christy and Stan Kenton - Ev'ry Time We Say Goodbye
TTITLE10=Julie London - Cry Me A River
TTITLE11=Liza Minnelli - Try To Remember
TTITLE12=Jo Stafford - Some Enchanted Evening
TTITLE13=Betty Hutton - It Had To Be You
TTITLE14=Keely Smith - You Go To My Head
TTITLE15=Frances Faye - Mad About The boy
TTITLE16=Dinah Shore - I'm Old Fashioned
TTITLE17=Martha Tilton - All Of Me
TTITLE18=Margaret Whiting - That Old Black Magic
TTITLE19=Shirley Bassey - As Long As He Needs Me
TTITLE20=Al Martino - Here In My Heart
EXTD=
EXTT0=
EXTT1=
EXTT2=
EXTT3=
EXTT4=
EXTT5=
EXTT6=
EXTT7=
EXTT8=
EXTT9=
EXTT10=
EXTT11=
EXTT12=
EXTT13=
EXTT14=
EXTT15=
EXTT16=
EXTT17=
EXTT18=
EXTT19=
EXTT20=
PLAYORDER=
